<svg width="256" height="256" viewBox="0 0 256 256" fill="none" xmlns="http://www.w3.org/2000/svg">
<path fill-rule="evenodd" clip-rule="evenodd" d="M132.472 205L182.534 118.292L162.162 130.093V119.162L191.975 102.019L221.665 50.5903L132.472 102.019V205Z" fill="#AEDDFF"/>
<path fill-rule="evenodd" clip-rule="evenodd" d="M132.472 194.938L173.714 123.386L162.162 130.094V124.255V119.162V113.448L189.863 97.423L214.584 54.5659L132.472 102.019V194.938Z" fill="#AEDDFF"/>
<path opacity="0.2" fill-rule="evenodd" clip-rule="evenodd" d="M183.155 101.274L189.987 97.2988L214.707 54.5659L175.329 77.2988C176.447 85.8702 179.18 93.9447 183.155 101.274Z" fill="#AEDDFF"/>
<path opacity="0.2" fill-rule="evenodd" clip-rule="evenodd" d="M132.472 194.938L173.839 123.385L162.162 130.093V124.255V123.634C151.23 125.497 141.168 129.845 132.472 135.932V194.938Z" fill="#AEDDFF"/>
<path opacity="0.2" fill-rule="evenodd" clip-rule="evenodd" d="M132.472 156.553V178.043C134.584 180.279 136.447 182.515 138.311 184.876L145.888 171.832C141.913 166.242 137.441 161.149 132.472 156.553Z" fill="#AEDDFF"/>
<path opacity="0.2" fill-rule="evenodd" clip-rule="evenodd" d="M132.472 146.242C139.056 151.584 145.019 157.671 150.112 164.379L166.137 136.677C156.323 127.236 145.019 119.286 132.472 113.447V146.242Z" fill="#AEDDFF"/>
<path opacity="0.2" fill-rule="evenodd" clip-rule="evenodd" d="M160.299 85.9946L141.665 96.8021C151.23 101.647 161.665 105.249 172.472 107.485L189.988 97.4232L195.205 88.3549C191.727 88.7275 188.249 88.8518 184.771 88.8518C176.323 88.8518 168.125 87.858 160.299 85.9946Z" fill="#AEDDFF"/>
<path opacity="0.2" fill-rule="evenodd" clip-rule="evenodd" d="M170.609 80.0311C175.206 80.6522 179.926 81.0249 184.771 81.0249C189.988 81.0249 195.081 80.6522 200.05 79.7826L212.1 58.9131C208.87 60.0311 205.516 61.0249 202.038 61.7702L170.609 80.0311Z" fill="#AEDDFF"/>
<path opacity="0.3" fill-rule="evenodd" clip-rule="evenodd" d="M132.472 194.938L173.714 123.385L171.975 124.379L132.472 192.826" fill="#AEDDFF"/>
<path opacity="0.3" fill-rule="evenodd" clip-rule="evenodd" d="M189.117 96.5534L161.043 112.827L162.161 119.162V113.448L189.863 97.423L214.583 54.5659L212.72 55.6839L189.117 96.5534Z" fill="#AEDDFF"/>
<path fill-rule="evenodd" clip-rule="evenodd" d="M123.528 205V102.019L34.3359 50.5903L84.398 137.298V113.696L93.8389 119.162V153.572L123.528 205Z" fill="#7BC6FF"/>
<path fill-rule="evenodd" clip-rule="evenodd" d="M123.528 194.937V102.018L43.0308 55.5586L84.3972 127.235V113.695V107.981L93.8381 113.447V119.161V143.509L123.528 194.937Z" fill="#7BC6FF"/>
<path opacity="0.2" fill-rule="evenodd" clip-rule="evenodd" d="M123.528 194.937V144.006C116.82 150.714 111.478 158.788 107.875 167.733L123.528 194.937Z" fill="#7BC6FF"/>
<path opacity="0.2" fill-rule="evenodd" clip-rule="evenodd" d="M60.5463 85.9933C68.2481 84.5026 75.4531 81.894 82.0369 78.1673L43.0308 55.5586L60.5463 85.9933Z" fill="#7BC6FF"/>
<path opacity="0.2" fill-rule="evenodd" clip-rule="evenodd" d="M69.7397 101.895L82.5348 124.006C83.1559 124.131 83.777 124.255 84.3981 124.379V113.82V107.982L93.8391 113.447V119.286V126.367C104.522 129.224 114.46 133.696 123.528 139.534V109.472C109.864 104.379 95.0813 101.522 79.5534 101.522C76.1994 101.522 72.9696 101.646 69.7397 101.895Z" fill="#7BC6FF"/>
<path opacity="0.2" fill-rule="evenodd" clip-rule="evenodd" d="M93.8384 143.509L100.671 155.31C108.994 158.912 116.695 163.633 123.528 169.223V148.85C114.584 142.515 104.646 137.546 93.8384 134.44V143.509Z" fill="#7BC6FF"/>
<path opacity="0.3" fill-rule="evenodd" clip-rule="evenodd" d="M84.3973 114.939V113.696V107.982L93.8383 113.448V119.162V120.404L94.8321 112.827L83.2793 106.119L84.3973 114.939Z" fill="#7BC6FF"/>
<path opacity="0.3" fill-rule="evenodd" clip-rule="evenodd" d="M43.0308 55.5586L84.3972 127.235V125.124L44.8941 56.6766L43.0308 55.5586Z" fill="#7BC6FF"/>
<path opacity="0.3" fill-rule="evenodd" clip-rule="evenodd" d="M123.528 192.826L93.8384 141.398V143.51L123.528 194.938" fill="#7BC6FF"/>
<path fill-rule="evenodd" clip-rule="evenodd" d="M135.948 60.3699L128.124 64.8994L103.418 50.5903H54.2114L128.124 93.2086L202.037 50.5903H119.065L135.948 60.3699Z" fill="#1867C0"/>
<path fill-rule="evenodd" clip-rule="evenodd" d="M140.065 57.8993L135.947 60.3699L128.124 64.8994L103.418 50.5903H62.5493L128.124 88.4732L193.698 50.5903H127.3L140.065 57.8993Z" fill="#1867C0"/>
<path opacity="0.2" fill-rule="evenodd" clip-rule="evenodd" d="M167.036 66.0317L193.698 50.5903H170.33C168.58 55.4286 167.448 60.6787 167.036 66.0317Z" fill="#1867C0"/>
<path opacity="0.2" fill-rule="evenodd" clip-rule="evenodd" d="M62.5493 50.5903L100.432 72.4142C105.579 67.7817 110.006 62.3258 113.3 56.2522L103.418 50.5903H62.5493Z" fill="#1867C0"/>
<path opacity="0.2" fill-rule="evenodd" clip-rule="evenodd" d="M102.903 50.5903H94.1533C101.977 65.517 113.301 78.2819 127.095 87.8555L128.124 88.4732L140.272 81.4731C125.036 74.8848 112.168 64.0758 102.903 50.5903Z" fill="#1867C0"/>
<path opacity="0.2" fill-rule="evenodd" clip-rule="evenodd" d="M128.125 64.8994L118.86 59.5464C126.889 67.37 136.566 73.4436 147.375 77.3555L163.434 68.0906C153.654 67.1641 144.39 64.4876 135.948 60.3699L128.125 64.8994Z" fill="#1867C0"/>
<path opacity="0.3" fill-rule="evenodd" clip-rule="evenodd" d="M127.301 50.5903L140.066 57.8993L135.948 60.3699L135.021 60.8846L141.816 57.8993L129.051 50.5903H127.301Z" fill="#1867C0"/>
<path opacity="0.3" fill-rule="evenodd" clip-rule="evenodd" d="M128.124 87.4438L64.2993 50.5903H62.5493L128.124 88.4732L193.698 50.5903H191.948L128.124 87.4438Z" fill="#1867C0"/>
<path fill-rule="evenodd" clip-rule="evenodd" d="M167.037 66.0317L163.331 68.0906L147.375 77.3554L140.272 81.4731L128.125 88.4732V93.2086L202.038 50.5903H193.699L167.037 66.0317Z" fill="#1867C0"/>
</svg>
